<?xml version="1.0" encoding="UTF-8"?>
<!DOCTYPE svg PUBLIC "-//W3C//DTD SVG 1.1//EN" "http://www.w3.org/Graphics/SVG/1.1/DTD/svg11.dtd">
<!-- Creator: CorelDRAW 2019 (64-Bit) -->
<svg xmlns="http://www.w3.org/2000/svg" xml:space="preserve" width="512px" height="512px" version="1.1" style="shape-rendering:geometricPrecision; text-rendering:geometricPrecision; image-rendering:optimizeQuality; fill-rule:evenodd; clip-rule:evenodd"
viewBox="0 0 140.98 140.98"
 xmlns:xlink="http://www.w3.org/1999/xlink"
 xmlns:xodm="http://www.corel.com/coreldraw/odm/2003">
 <defs>
  <style type="text/css">
   <![CDATA[
    .fil0 {fill:#474A1D}
    .fil1 {fill:#F49600}
   ]]>
  </style>
 </defs>
 <g id="Layer_x0020_1">
  <metadata id="CorelCorpID_0Corel-Layer"/>
  <path class="fil0" d="M0 71.03c0.14,17.12 6.46,33.45 17.93,46.26l0.42 0.45c0,0 0,0 0.01,0l1.09 1.16c0,0 0,0 0.01,0.01l0.04 0.03c0.02,0.01 0.04,0.03 0.06,0.05l0.76 0.68c2.84,2.25 5.67,3.54 9.21,4.34 2.25,0.5 4.89,0.73 7.19,0.77 2.25,0.04 4.58,-0.18 6.81,-0.46 0.91,-0.11 1.82,-0.23 2.72,-0.39 3.64,-0.64 7.09,-1.94 9.98,-4.26 3.11,-2.48 5.34,-5.56 6.81,-9.23 2.91,-7.24 3,-14.88 3.23,-22.56 0.03,-0.78 0.01,-1.56 0.04,-2.35 0.1,-4.21 -0.13,-8.65 -0.16,-12.9 -0.06,-6.36 -0.08,-12.72 -0.13,-19.07 -0.12,-14.01 -0.64,-28.22 -0.39,-42.2 0.04,-2.33 0.77,-9.15 -0.74,-10.71 -0.96,-0.99 -3.14,-0.4 -4.33,-0.15 -4.16,0.79 -9.4,2.16 -13.43,3.52l-0.35 0.12c-12.96,4.61 -23.46,12.44 -31.92,23.17 -9.78,12.62 -14.86,27.82 -14.86,43.72z"/>
  <path class="fil0" d="M121.24 120.57c6.24,-6.14 11.3,-13.39 14.89,-21.36 3.51,-8.08 5.02,-12.77 4.84,-21.92 -0.02,-0.73 -0.01,-1.14 0,-1.35 0.01,-0.23 0.01,-0.18 -0.52,-0.18l-3.81 -0.01c-6.73,0 -51.83,0.11 -59.05,0 -0.29,0 -0.46,0.06 -0.52,0.09 -0.42,0.24 -0.67,1.23 -0.8,2.56 -0.37,3.56 0.14,7.02 -0.1,10.45 -1.85,22.63 -3.36,40.86 -30.92,45.03 -4.2,0.64 -3.26,1.16 0.16,2.5 12.34,4.84 27.43,5.81 40.4,3.16 13.6,-2.83 25.46,-9.42 35.43,-18.97z"/>
  <path class="fil1" d="M82.93 28.61c3.38,6.28 7.71,11.99 12.89,17.08 11.78,11.18 24.56,17.54 40.68,19.76 3.21,0.44 4.46,-0.16 4.46,-1.61l0.01 -5.36 0 -53.95c0,-4.42 0.23,-4.42 -3.79,-4.43 -4.78,0 -49.81,-0.22 -59.64,-0.01l-2.1 0c-0.64,0 -1.17,0.53 -1.17,1.17l0 63.33 8.66 0 0 -35.98z"/>
  <polygon class="fil1" points="78.12,1.94 138.32,1.94 138.32,0.1 78.12,0.1 "/>
 </g>
</svg>
